<svg xmlns="http://www.w3.org/2000/svg" width="16.255" height="16.001" viewBox="0 0 16.255 16.001">
  <g id="_7IyCC8.tif" data-name="7IyCC8.tif" transform="translate(-347.205 -524.621)">
    <g id="Group_40" data-name="Group 40" transform="translate(347.205 524.621)">
      <path id="Path_54" data-name="Path 54" d="M363.46,533.335c-.058.375-.094.752-.176,1.123a8.12,8.12,0,0,1-5.27,5.935c-.191.068-.266.015-.267-.2,0-.778,0-1.556,0-2.334a2.279,2.279,0,0,0-.22-1c-.062-.126-.036-.17.1-.2a4.943,4.943,0,0,0,1.465-.5,3.458,3.458,0,0,0,1.74-2.4,5.146,5.146,0,0,0,0-2.679,3.53,3.53,0,0,0-.527-1.063.388.388,0,0,1-.069-.352,3.6,3.6,0,0,0-.174-2.036.628.628,0,0,0-.727-.333,3.841,3.841,0,0,0-1.606.645,1.105,1.105,0,0,1-.905.16,8.363,8.363,0,0,0-3.325.033.535.535,0,0,1-.422-.076,4.353,4.353,0,0,0-1.826-.69.6.6,0,0,0-.74.445,3.818,3.818,0,0,0-.11,2.007.23.23,0,0,1-.047.209,3.831,3.831,0,0,0-.738,2.535,4.774,4.774,0,0,0,.714,2.492,3.942,3.942,0,0,0,2.225,1.546c.148.046.3.091.449.125.109.024.148.066.1.178s-.1.247-.136.373a.245.245,0,0,1-.164.162,1.386,1.386,0,0,1-1.529-.345,3.809,3.809,0,0,0-.806-.868,1.864,1.864,0,0,0-1.162-.369.8.8,0,0,0-.153.021.54.54,0,0,0-.426.34.485.485,0,0,0,.2.519,1.341,1.341,0,0,0,.2.165,1.992,1.992,0,0,1,.85,1.1,2.176,2.176,0,0,0,1.776,1.435,4.249,4.249,0,0,0,.9.039c.16,0,.231.043.223.215-.012.247,0,.5,0,.743,0,.178-.067.218-.228.149a8.764,8.764,0,0,1-4.681-4.482,8.144,8.144,0,0,1,5.511-11.294c.37-.086.746-.134,1.12-.193h1.522a.536.536,0,0,0,.083.021,7.291,7.291,0,0,1,2.091.5,8.012,8.012,0,0,1,4.973,5.661,10.063,10.063,0,0,1,.219,1.359Z" transform="translate(-347.205 -524.621)" fill="#fff"/>
    </g>
  </g>
</svg>
