<svg xmlns="http://www.w3.org/2000/svg" width="16.031" height="16.001" viewBox="0 0 16.031 16.001">
  <g id="mfzwPb.tif" transform="translate(-197 -280.344)">
    <g id="Group_38" data-name="Group 38" transform="translate(197 280.344)">
      <path id="Path_48" data-name="Path 48" d="M208.472,296.345H201.56c-.155-.019-.31-.032-.464-.057a4.666,4.666,0,0,1-3.821-3.121,5,5,0,0,1-.275-1.443v-6.752c.007-.053.02-.106.022-.16a4.2,4.2,0,0,1,.495-1.849,4.684,4.684,0,0,1,4.365-2.61c2.086-.016,4.173-.005,6.259,0a4.852,4.852,0,0,1,4.691,3.433,5.313,5.313,0,0,1,.2,1.151v6.86c-.018.154-.03.31-.056.463a4.663,4.663,0,0,1-3.18,3.833A5.1,5.1,0,0,1,208.472,296.345Zm-3.454-15.009c-1.128,0-2.255,0-3.383,0a2.909,2.909,0,0,0-.521.049,3.782,3.782,0,0,0-3.129,3.709c.013,2.172,0,4.344,0,6.516a3.889,3.889,0,0,0,.031.5,3.759,3.759,0,0,0,3.659,3.245c2.225.008,4.45,0,6.675,0a3.46,3.46,0,0,0,1.286-.256,3.8,3.8,0,0,0,2.4-3.636c.006-2.13,0-4.26,0-6.389a3.716,3.716,0,0,0-3.715-3.741C207.225,281.333,206.122,281.336,205.018,281.336Z" transform="translate(-197 -280.344)" fill="#fff"/>
      <path id="Path_49" data-name="Path 49" d="M317.543,396.965a3.9,3.9,0,0,1-3.922,3.911,3.926,3.926,0,1,1,.046-7.852A3.911,3.911,0,0,1,317.543,396.965Zm-3.9,2.929a2.944,2.944,0,1,0-2.954-2.942A2.931,2.931,0,0,0,313.643,399.894Z" transform="translate(-305.622 -388.946)" fill="#fff"/>
      <path id="Path_50" data-name="Path 50" d="M497.433,333.639a1.476,1.476,0,0,1,1.483-1.515,1.542,1.542,0,0,1,1.539,1.486,1.5,1.5,0,0,1-1.507,1.527A1.467,1.467,0,0,1,497.433,333.639Zm1.49.5a.517.517,0,0,0,.542-.509.535.535,0,0,0-.54-.518.514.514,0,1,0,0,1.027Z" transform="translate(-486.561 -330.25)" fill="#fff"/>
    </g>
  </g>
</svg>
