<svg xmlns="http://www.w3.org/2000/svg" width="16.29" height="16.001" viewBox="0 0 16.29 16.001">
  <g id="dC2DvE.tif" transform="translate(-670.885 -278.066)">
    <g id="Group_39" data-name="Group 39" transform="translate(670.885 278.066)">
      <path id="Path_51" data-name="Path 51" d="M739.882,338.129c-.77.077-1.543.033-2.314.048-.235,0-.471.014-.706.028-.153.01-.21-.05-.207-.2.007-.418,0-.837,0-1.256q0-2.282-.006-4.564a2.271,2.271,0,0,0-.092-.609,1.324,1.324,0,0,0-1.321-1.03,4.066,4.066,0,0,0-1.232.055,1.05,1.05,0,0,0-.834.818,3.168,3.168,0,0,0-.108.821q0,2.813,0,5.626c0,.27,0,.265-.261.281-.948.058-1.9.017-2.846.037-.166,0-.209-.056-.209-.214q.005-5.175,0-10.349c0-.167.046-.223.219-.224.908,0,1.815-.021,2.722-.031.232,0,.233,0,.234.237,0,.471,0,.943,0,1.434a.959.959,0,0,0,.3-.229,4.659,4.659,0,0,1,2.052-1.168,4.748,4.748,0,0,1,2.7.137,2.72,2.72,0,0,1,1.889,2.381c.006.04.016.08.025.12Z" transform="translate(-723.592 -322.206)" fill="#fff"/>
      <path id="Path_52" data-name="Path 52" d="M672.879,278.066a1.911,1.911,0,0,1,1.217.651,1.818,1.818,0,1,1-1.655-.628.672.672,0,0,0,.084-.023Z" transform="translate(-670.885 -278.066)" fill="#fff"/>
      <path id="Path_53" data-name="Path 53" d="M675.292,332.741q0,2.556,0,5.112c0,.249,0,.248-.247.263-.854.052-1.709.022-2.564.033a1.946,1.946,0,0,0-.23,0c-.335.044-.3-.01-.3-.28q0-5.095,0-10.189c0-.059,0-.118,0-.177,0-.095.043-.137.14-.138,1.014-.013,2.027-.045,3.042-.037.129,0,.16.06.159.174,0,.413,0,.826,0,1.238Z" transform="translate(-671.838 -322.178)" fill="#fff"/>
    </g>
  </g>
</svg>
